<?xml version="1.0" encoding="UTF-8" standalone="no"?>
<!-- Created with Inkscape (http://www.inkscape.org/) -->

<svg
   width="300"
   height="300"
   viewBox="0 0 300 300"
   version="1.1"
   id="svg1"
   inkscape:version="1.3.2 (091e20e, 2023-11-25, custom)"
   sodipodi:docname="logo5.1.svg"
   inkscape:export-filename="logo5.1.png"
   inkscape:export-xdpi="640"
   inkscape:export-ydpi="640"
   xml:space="preserve"
   xmlns:inkscape="http://www.inkscape.org/namespaces/inkscape"
   xmlns:sodipodi="http://sodipodi.sourceforge.net/DTD/sodipodi-0.dtd"
   xmlns="http://www.w3.org/2000/svg"
   xmlns:svg="http://www.w3.org/2000/svg"><sodipodi:namedview
     id="namedview1"
     pagecolor="#ffffff"
     bordercolor="#000000"
     borderopacity="0.25"
     inkscape:showpageshadow="2"
     inkscape:pageopacity="0.0"
     inkscape:pagecheckerboard="0"
     inkscape:deskcolor="#d1d1d1"
     inkscape:document-units="px"
     inkscape:zoom="2"
     inkscape:cx="129.75"
     inkscape:cy="127.25"
     inkscape:window-width="1920"
     inkscape:window-height="1009"
     inkscape:window-x="-8"
     inkscape:window-y="-8"
     inkscape:window-maximized="1"
     inkscape:current-layer="layer5"
     inkscape:export-bgcolor="#ffffffff" /><defs
     id="defs1"><inkscape:path-effect
       effect="spiro"
       id="path-effect41"
       is_visible="true"
       lpeversion="1" /><inkscape:path-effect
       effect="spiro"
       id="path-effect40"
       is_visible="true"
       lpeversion="1" /><inkscape:path-effect
       effect="spiro"
       id="path-effect39"
       is_visible="true"
       lpeversion="1" /><inkscape:path-effect
       effect="spiro"
       id="path-effect6"
       is_visible="true"
       lpeversion="1" /><inkscape:path-effect
       effect="spiro"
       id="path-effect5"
       is_visible="true"
       lpeversion="1" /><inkscape:path-effect
       effect="spiro"
       id="path-effect4"
       is_visible="true"
       lpeversion="1" /><inkscape:path-effect
       effect="spiro"
       id="path-effect3"
       is_visible="true"
       lpeversion="1" /><inkscape:path-effect
       effect="spiro"
       id="path-effect2"
       is_visible="true"
       lpeversion="1" /></defs><g
     inkscape:groupmode="layer"
     id="layer5"
     inkscape:label="Layer 1"><rect
       style="fill:#000000;stroke-width:0.768108"
       id="rect4-0-1"
       width="8.7018738"
       height="45.82877"
       x="193.26601"
       y="105.49138"
       ry="2.7"
       rx="2.7" /><rect
       style="fill:#000000;stroke-width:0.347351"
       id="rect4-0-1-42"
       width="8.7322035"
       height="9.3393764"
       x="228.95387"
       y="105.49727"
       ry="0" /><rect
       style="fill:#000000;stroke-width:0.477161"
       id="rect4-0-1-4"
       width="4.3703704"
       height="35.21426"
       x="105.4937"
       y="-233.83485"
       ry="0.0088519547"
       transform="rotate(90)" /><rect
       style="fill:#000000;stroke-width:0.19318"
       id="rect4-0-1-4-6"
       width="2.46"
       height="13.886884"
       x="135.381"
       y="-45.162067"
       ry="0.0034908031"
       transform="rotate(90)" /><rect
       style="fill:#000000;stroke-width:0.310533"
       id="rect4-0-1-4-6-6-9"
       width="4.336978"
       height="15.029024"
       x="29.750309"
       y="122.86623"
       ry="1.2218323" /><rect
       style="fill:#000000;stroke-width:0.354642"
       id="rect4-0-1-4-6-6-2"
       width="4.3959999"
       height="19.012033"
       x="47.98489"
       y="118.85909"
       ry="0.004779133" /><rect
       style="fill:#000000;stroke-width:0.354912"
       id="rect4-0-1-4-6-6-2-2"
       width="4.3959999"
       height="19.041191"
       x="59.687"
       y="118.83674"
       ry="0.004786463" /><rect
       style="fill:#000000;stroke-width:0.276979"
       id="rect4-0-1-4-6-6-2-4"
       width="2.5780001"
       height="21.396883"
       x="-11.860673"
       y="133.92264"
       ry="0.005378624"
       transform="matrix(1,0,0.46060268,0.88760643,0,0)" /><rect
       style="fill:#000000;stroke-width:0.813591"
       id="rect4-0-2"
       width="8.6615629"
       height="52.592903"
       x="209.39272"
       y="121.00098"
       ry="0.013160978"
       transform="matrix(0.99999972,-7.4289248e-4,-0.48928907,0.87212167,0,0)" /><rect
       style="fill:#000000;stroke-width:0.806004"
       id="rect4-0-2-3"
       width="8.5435648"
       height="52.331753"
       x="-100.38412"
       y="120.53103"
       ry="0.013095493"
       transform="matrix(-0.99999972,-7.5147349e-4,0.48502207,0.87450191,0,0)" /><rect
       style="fill:#000000;stroke-width:0.565476"
       id="rect4-0-1-4-8-4"
       width="4.5"
       height="48.03125"
       x="190.17012"
       y="-60.1395"
       ry="0.012073814"
       transform="rotate(90)" /><rect
       style="fill:#000000;stroke-width:0.539466"
       id="rect4-0-1-4-8-4-2"
       width="4.5"
       height="43.714149"
       x="146.737"
       y="-60.178722"
       ry="0.010988605"
       transform="rotate(90)" /><rect
       style="fill:#000000;stroke-width:0.50661"
       id="rect4-0-1-4-8-4-2-2"
       width="4.5"
       height="38.55146"
       x="146.78212"
       y="-111.62848"
       ry="0.0096908398"
       transform="rotate(90)" /><rect
       style="fill:#000000;stroke-width:0.80158"
       id="rect4-0-1-4-8-4-2-4"
       width="4.5"
       height="96.513405"
       x="105.45907"
       y="-112.86705"
       ry="0.024260972"
       transform="rotate(90)" /><rect
       style="fill:#000000;stroke-width:0.344625"
       id="rect4-0-1-42-4"
       width="8.7322035"
       height="9.1934242"
       x="228.95387"
       y="-151.17313"
       ry="0"
       transform="scale(1,-1)" /><rect
       style="fill:#000000;stroke-width:0.512381"
       id="rect4-0-1-4-50"
       width="4.5469999"
       height="39.025806"
       x="-151.32024"
       y="-237.66032"
       ry="0.009810078"
       transform="matrix(0,-1,-1,0,0,0)" /><rect
       style="fill:#000000;stroke-width:0.769339"
       id="rect4-0-1-47"
       width="8.7322035"
       height="45.816219"
       x="247.04066"
       y="105.50223"
       ry="2.7114727"
       rx="2.7" /><rect
       style="fill:#000000;stroke-width:0.515955"
       id="rect4-0-1-4-66"
       width="4.5042539"
       height="39.948997"
       x="105.49138"
       y="-291.53766"
       ry="0.010042145"
       transform="rotate(90)" /><rect
       style="fill:#000000;stroke-width:0.425303"
       id="rect4-0-1-4-8-49"
       width="4.6134386"
       height="26.501875"
       x="126.46523"
       y="250.70764"
       ry="0.0066618854"
       transform="matrix(0,1,1,0,0,0)" /><rect
       style="fill:#000000;stroke-width:0.33456"
       id="rect4-0-1-4-6-6-2-3"
       width="4.3960991"
       height="17.210037"
       x="29.745068"
       y="118.76499"
       ry="0.0043261577" /><rect
       style="fill:#000000;stroke-width:0.521079"
       id="rect4-0-1-4-66-4"
       width="4.5926423"
       height="39.96225"
       x="146.72758"
       y="-291.55093"
       ry="0.010045475"
       transform="rotate(90)" /><path
       style="fill:#000000;stroke-width:0.162691"
       d="m 162.1176,149.42104 c -0.0119,0.16799 -0.038,0.15965 -0.20864,-0.0665 -0.0759,-0.10052 -0.22418,-0.29736 -0.32964,-0.43743 -0.25729,-0.34171 -0.62242,-0.82527 -0.80511,-1.06621 -0.0381,-0.0502 -0.12535,-0.16615 -0.19389,-0.25754 -0.0685,-0.0914 -0.17305,-0.2297 -0.23227,-0.30737 -0.0592,-0.0777 -0.16329,-0.21531 -0.23127,-0.30585 -0.16781,-0.22348 -0.34502,-0.45734 -0.49272,-0.65024 -0.0676,-0.0884 -0.13781,-0.18151 -0.15585,-0.20695 -0.0181,-0.0254 -0.17316,-0.22837 -0.3447,-0.45097 -0.33269,-0.43168 -0.48868,-0.63708 -0.54039,-0.71155 l -0.032,-0.0461 -4.01027,0.002 -4.01028,0.002 -0.0963,0.12461 c -0.0529,0.0685 -0.1127,0.14824 -0.1327,0.17712 -0.0201,0.0289 -0.0839,0.11485 -0.14191,0.19107 -0.15533,0.20398 -0.34036,0.44873 -0.48161,0.63701 -0.1333,0.1777 -0.19202,0.25532 -0.38761,0.51247 -0.0684,0.09 -0.13916,0.18446 -0.15721,0.21002 -0.018,0.0255 -0.0992,0.13383 -0.18045,0.24057 -0.17072,0.22442 -0.4018,0.53029 -0.57156,0.75658 -0.0652,0.0869 -0.17725,0.23563 -0.24917,0.3307 -0.30365,0.40142 -0.63783,0.84477 -0.94673,1.25603 -0.22748,0.30285 -0.19983,0.78659 -0.20932,-3.66219 l -0.009,-3.84483 0.12012,-0.15923 c 0.066,-0.0876 0.15094,-0.19967 0.18864,-0.24909 0.0376,-0.0495 0.10915,-0.14357 0.15878,-0.20921 0.10486,-0.13874 0.19618,-0.25888 0.3031,-0.39876 0.0418,-0.0549 0.12927,-0.16981 0.19413,-0.25552 0.22034,-0.29113 0.43544,-0.57414 0.59506,-0.78291 0.13131,-0.17177 0.17183,-0.22507 0.3551,-0.46714 0.0787,-0.10404 0.19186,-0.2527 0.25132,-0.33038 0.0594,-0.0776 0.1611,-0.21136 0.22589,-0.29707 0.18358,-0.24286 0.39909,-0.52656 0.58946,-0.77599 0.0564,-0.0739 0.12465,-0.16352 0.15172,-0.1992 0.027,-0.0357 0.15165,-0.199 0.27684,-0.36296 l 0.22764,-0.2981 -0.0115,-0.35537 c -0.007,-0.19545 -0.0138,-0.36794 -0.0166,-0.3833 -0.003,-0.0154 -0.0104,-0.1812 -0.0169,-0.36853 -0.007,-0.18734 -0.014,-0.36191 -0.017,-0.38794 -0.0366,-0.32743 -0.0362,-3.02372 3.9e-4,-3.62455 0.004,-0.0549 0.0105,-0.20811 0.0161,-0.34061 0.006,-0.13251 0.0129,-0.297 0.0165,-0.36553 0.004,-0.0685 0.0112,-0.22181 0.0165,-0.34061 0.006,-0.11879 0.0128,-0.24216 0.0163,-0.27414 0.004,-0.032 0.0108,-0.12544 0.016,-0.20769 0.0118,-0.18492 0.0239,-0.34224 0.0339,-0.44029 0.0105,-0.10279 0.0213,-0.22321 0.049,-0.5483 0.005,-0.0594 0.0124,-0.12669 0.0163,-0.14953 0.004,-0.0228 0.011,-0.0827 0.0159,-0.13291 0.005,-0.0502 0.0122,-0.11756 0.0163,-0.14954 0.004,-0.032 0.0118,-0.0993 0.0169,-0.14953 0.005,-0.0502 0.0161,-0.14373 0.0244,-0.20769 0.009,-0.064 0.0191,-0.14995 0.024,-0.19107 0.0192,-0.16281 0.0276,-0.22927 0.0443,-0.34891 0.01,-0.0685 0.0196,-0.13656 0.0225,-0.15117 0.003,-0.0146 0.01,-0.0662 0.0161,-0.11466 0.006,-0.0485 0.0133,-0.10008 0.0161,-0.11469 0.003,-0.0146 0.0137,-0.0864 0.0242,-0.15946 0.0105,-0.0731 0.0297,-0.19273 0.0426,-0.26585 0.0129,-0.0731 0.0276,-0.16282 0.0328,-0.19937 0.005,-0.0366 0.0123,-0.0777 0.016,-0.0914 0.004,-0.0137 0.0109,-0.0511 0.016,-0.0831 0.009,-0.0559 0.0652,-0.36283 0.0821,-0.4486 0.005,-0.0228 0.0193,-0.10135 0.0329,-0.17446 0.0297,-0.15977 0.0732,-0.36339 0.14897,-0.69781 0.0311,-0.13708 0.0601,-0.26606 0.0645,-0.28662 0.005,-0.0205 0.0117,-0.0523 0.0162,-0.0706 0.0198,-0.0802 0.0268,-0.11055 0.0345,-0.14953 0.005,-0.0228 0.0192,-0.0827 0.0327,-0.13292 0.0135,-0.0502 0.0281,-0.11008 0.0324,-0.13292 0.005,-0.0228 0.0149,-0.0602 0.0234,-0.0831 0.009,-0.0228 0.0379,-0.13125 0.0654,-0.24091 0.0275,-0.10966 0.0676,-0.2592 0.0892,-0.3323 0.0216,-0.0731 0.0653,-0.22264 0.0972,-0.3323 0.0686,-0.23604 0.27799,-0.87787 0.3632,-1.11319 0.0331,-0.0914 0.0775,-0.21475 0.0987,-0.27415 0.063,-0.17651 0.28366,-0.74236 0.30234,-0.77532 0.01,-0.0168 0.0499,-0.10901 0.0896,-0.20496 0.13013,-0.31407 0.2381,-0.5475 0.47225,-1.02111 0.15145,-0.30632 0.19123,-0.3833 0.30523,-0.59053 0.0226,-0.0411 0.0633,-0.11589 0.0905,-0.16615 0.0271,-0.0502 0.0999,-0.17616 0.16167,-0.27977 0.0617,-0.10361 0.11227,-0.19169 0.11227,-0.19576 0,-0.004 0.0324,-0.0576 0.072,-0.11899 0.0395,-0.0614 0.12631,-0.1976 0.19277,-0.30268 0.21173,-0.33478 0.47112,-0.70854 0.49515,-0.71345 0.0202,-0.004 0.15281,0.17999 0.40024,0.5556 0.2041,0.30986 0.2963,0.45804 0.499,0.80187 0.11041,0.18729 0.24386,0.42269 0.24386,0.43012 0,0.005 0.0137,0.0289 0.0303,0.0531 0.11553,0.16849 0.66006,1.30305 0.806,1.67932 0.0192,0.0495 0.0486,0.12056 0.0653,0.15784 0.0462,0.10283 0.19434,0.47992 0.25836,0.65763 0.0312,0.0869 0.0827,0.22888 0.11446,0.31569 0.0779,0.21341 0.28839,0.85932 0.36011,1.10488 0.032,0.10966 0.0769,0.26293 0.0997,0.34061 0.0377,0.12862 0.0661,0.23431 0.19134,0.71444 0.0226,0.0868 0.0449,0.17653 0.0494,0.19938 0.008,0.039 0.0149,0.07 0.0346,0.14953 0.005,0.0182 0.0118,0.0482 0.0164,0.0665 0.005,0.0182 0.0119,0.05 0.0162,0.0706 0.005,0.0205 0.0346,0.15701 0.067,0.30323 0.0949,0.4281 0.11984,0.54474 0.12993,0.60644 0.005,0.032 0.0125,0.0694 0.0161,0.0831 0.004,0.0137 0.0107,0.0528 0.0157,0.087 0.005,0.0341 0.0169,0.0977 0.0267,0.14122 0.0152,0.0686 0.0666,0.35914 0.0905,0.51122 0.005,0.0274 0.0182,0.10966 0.031,0.18277 0.0204,0.11695 0.0304,0.18184 0.0681,0.4403 0.005,0.032 0.0115,0.0764 0.0151,0.0988 0.0101,0.0619 0.0542,0.38164 0.0642,0.4661 0.0138,0.11602 0.0232,0.19181 0.0506,0.40706 0.0252,0.19835 0.0293,0.23268 0.0486,0.40707 0.024,0.21606 0.031,0.28727 0.05,0.50675 0.006,0.064 0.0126,0.135 0.0159,0.15785 0.003,0.0229 0.0108,0.1163 0.0171,0.20768 0.007,0.0914 0.0134,0.17736 0.0159,0.19107 0.003,0.0137 0.01,0.11464 0.0163,0.2243 0.007,0.10966 0.0142,0.21243 0.0172,0.22838 0.003,0.0159 0.01,0.13183 0.0149,0.25752 0.006,0.1257 0.0128,0.2734 0.0167,0.32823 0.004,0.0549 0.0114,0.21932 0.0167,0.36553 0.006,0.14621 0.0127,0.30322 0.0164,0.34891 0.0384,0.46922 0.0385,3.06713 1.3e-4,3.67189 -0.003,0.0457 -0.0103,0.21765 -0.0165,0.38214 -0.006,0.16449 -0.0137,0.3215 -0.0166,0.34891 -0.003,0.0274 -0.0106,0.20547 -0.0171,0.39568 l -0.0117,0.34583 0.0407,0.0446 c 0.035,0.0384 0.0974,0.1196 0.34073,0.44311 0.18848,0.25065 0.25464,0.33751 0.3691,0.48461 0.19498,0.25058 0.6093,0.7879 0.72191,0.93624 0.0312,0.0411 0.11985,0.15701 0.19695,0.25753 0.0771,0.10051 0.16579,0.21641 0.19707,0.25752 0.0313,0.0411 0.15381,0.20187 0.27229,0.35722 0.11847,0.15535 0.24585,0.32271 0.28305,0.37192 0.0372,0.0493 0.0861,0.11367 0.10866,0.14324 0.0225,0.0295 0.094,0.12389 0.15882,0.2096 0.0648,0.0857 0.14645,0.19321 0.18146,0.23891 0.035,0.0457 0.0951,0.12419 0.13353,0.17446 0.0384,0.0502 0.10075,0.1316 0.13845,0.18076 0.0377,0.0492 0.0833,0.10974 0.10135,0.13463 0.0181,0.0249 0.0587,0.0791 0.0902,0.12047 0.0315,0.0414 0.11534,0.15153 0.18614,0.24481 l 0.12872,0.1696 0.003,3.73274 c 0.002,2.053 -0.002,3.78507 -0.006,3.84904 z m -6.11175,-21.98149 c -0.003,-0.0182 -0.0131,-0.0781 -0.022,-0.13292 -0.009,-0.0549 -0.0317,-0.18941 -0.0507,-0.29907 -0.019,-0.10966 -0.0381,-0.2218 -0.0426,-0.24922 -0.005,-0.0274 -0.011,-0.061 -0.0147,-0.0748 -0.004,-0.0137 -0.0109,-0.0549 -0.0162,-0.0914 -0.005,-0.0365 -0.0203,-0.12627 -0.0334,-0.19938 -0.0131,-0.0731 -0.028,-0.15908 -0.033,-0.19106 -0.005,-0.032 -0.0122,-0.0694 -0.016,-0.0831 -0.004,-0.0137 -0.0113,-0.0586 -0.0166,-0.0997 -0.006,-0.0411 -0.0129,-0.086 -0.0166,-0.0997 -0.004,-0.0137 -0.0109,-0.0511 -0.0159,-0.0831 -0.005,-0.032 -0.0125,-0.0768 -0.0167,-0.0997 -0.004,-0.0228 -0.0118,-0.0677 -0.0167,-0.0997 -0.005,-0.032 -0.0121,-0.0694 -0.0159,-0.0831 -0.004,-0.0137 -0.0113,-0.0586 -0.0166,-0.0997 -0.006,-0.0411 -0.0129,-0.086 -0.0166,-0.0997 -0.004,-0.0137 -0.011,-0.0511 -0.0161,-0.0831 -0.005,-0.032 -0.02,-0.11795 -0.0331,-0.19107 -0.013,-0.0731 -0.0279,-0.15886 -0.0331,-0.19056 -0.012,-0.0734 0.0503,-0.04 -0.51535,-0.27618 -0.59252,-0.24743 -0.41435,-0.26964 -1.46327,0.18242 -0.0632,0.0272 -0.0763,0.0596 -0.10546,0.25941 -0.0114,0.078 -0.0174,0.11332 -0.0311,0.18276 -0.005,0.0228 -0.0121,0.0677 -0.017,0.0997 -0.005,0.032 -0.0124,0.0769 -0.017,0.0997 -0.0119,0.0604 -0.0187,0.0988 -0.0322,0.18278 -0.0136,0.0839 -0.0203,0.12236 -0.0323,0.18275 -0.005,0.0229 -0.0117,0.064 -0.016,0.0914 -0.008,0.0487 -0.0422,0.25135 -0.10719,0.62721 -0.0178,0.10281 -0.0367,0.21684 -0.0419,0.25338 -0.006,0.0365 -0.0126,0.0776 -0.0163,0.0914 -0.004,0.0137 -0.0109,0.0511 -0.0161,0.0831 -0.005,0.032 -0.02,0.11796 -0.0331,0.19107 -0.013,0.0731 -0.0277,0.15908 -0.0327,0.19107 -0.005,0.032 -0.0166,0.10192 -0.026,0.15542 -0.01,0.0534 -0.0146,0.0994 -0.0118,0.10211 0.003,0.003 0.33732,-0.0988 0.74335,-0.22557 l 0.7382,-0.23042 0.73003,0.22607 c 0.4015,0.12434 0.74028,0.23002 0.75283,0.23484 0.0183,0.007 0.0205,-0.004 0.0106,-0.0562 -0.007,-0.0357 -0.0148,-0.0799 -0.0181,-0.0982 z m 0.31919,19.02404 c -0.18915,0.49346 -0.44659,1.16637 -0.57209,1.49534 -0.1255,0.32897 -0.31247,0.8187 -0.41547,1.08827 -0.10302,0.26958 -0.32632,0.85426 -0.49622,1.29931 l -0.30892,0.80915 -0.25752,-0.67624 c -0.14164,-0.37193 -0.3981,-1.04634 -0.56989,-1.49868 -0.1718,-0.45234 -0.38381,-1.00935 -0.47113,-1.2378 -0.0873,-0.22846 -0.18654,-0.49015 -0.22049,-0.58152 -0.0339,-0.0914 -0.18448,-0.48823 -0.33455,-0.88186 -0.29054,-0.76221 -0.29318,-0.77085 -0.23592,-0.77218 0.0523,-9.5e-4 4.12848,-0.002 4.18323,-1.4e-4 0.0664,0.002 0.0733,-0.0201 -0.30103,0.95635 z"
       id="path3" /></g><rect
     style="fill:#000000;stroke-width:0.770183"
     id="rect4-0-4"
     width="8.75"
     height="45.823223"
     x="12.202001"
     y="105.45882"
     ry="2.7"
     rx="2.7" /><rect
     style="fill:#000000;stroke-width:0.992671"
     id="rect4-0-4-45-3"
     width="8.75"
     height="76.122398"
     x="72.784126"
     y="118.71142"
     ry="0.019135201" /><rect
     style="fill:#000000;stroke-width:0.787572"
     id="rect4-0-4-4"
     width="8.75"
     height="47.915974"
     x="55.303001"
     y="146.75294"
     ry="2.7008808"
     rx="2.7" /><rect
     style="fill:#000000;stroke-width:0.36821"
     id="rect4-0-4-2"
     width="8.6499996"
     height="10.594558"
     x="12.102003"
     y="184.07178"
     ry="0" /><rect
     style="fill:#000000;stroke-width:0.770183"
     id="rect4-0-4-7"
     width="8.75"
     height="45.823223"
     x="106.92904"
     y="105.453"
     ry="2.7"
     rx="2.7" /></svg>
